<svg id="Layer_1" data-name="Layer 1" xmlns="http://www.w3.org/2000/svg" viewBox="0 0 529.62 610"><defs><style>.cls-1{fill:none;stroke:#fff;stroke-linecap:round;stroke-miterlimit:10;stroke-width:10px;}</style></defs><polygon points="524.62 355 524.62 455 438.02 505 351.41 555 264.81 605 264.81 505 351.41 455 351.41 355 351.41 255 438.02 205 438.02 305 438.02 405 524.62 355"/><polygon points="524.62 155 524.62 255 438.02 305 438.02 205 524.62 155"/><polygon points="524.62 155 438.02 205 351.41 155 264.81 205 178.21 255 91.6 205 178.21 155 264.81 105 178.21 55 264.81 5 351.41 55 438.02 105 524.62 155"/><polygon points="524.62 355 438.02 405 438.02 305 524.62 355"/><polygon points="438.02 205 351.41 255 264.81 205 351.41 155 438.02 205"/><polygon points="351.41 355 351.41 455 264.81 505 264.81 405 351.41 355"/><polygon points="351.41 255 351.41 355 264.81 305 264.81 205 351.41 255"/><polygon points="351.41 355 264.81 405 178.21 355 264.81 305 351.41 355"/><polygon points="264.81 505 264.81 605 178.21 555 178.21 455 264.81 505"/><polygon points="264.81 405 264.81 505 178.21 455 91.6 405 91.6 505 5 455 5 355 5 255 5 155 91.6 205 91.6 305 178.21 355 264.81 405"/><polygon points="264.81 205 264.81 305 178.21 355 178.21 255 264.81 205"/><polygon points="264.81 105 178.21 155 178.21 55 264.81 105"/><polygon points="178.21 255 178.21 355 91.6 305 91.6 205 178.21 255"/><polygon points="178.21 155 91.6 205 5 155 91.6 105 178.21 155"/><polygon points="178.21 455 91.6 505 91.6 405 178.21 455"/><line class="cls-1" x1="178.21" y1="255" x2="178.21" y2="355"/><line class="cls-1" x1="264.81" y1="305" x2="178.21" y2="355"/><line class="cls-1" x1="178.21" y1="355" x2="264.81" y2="405"/><line class="cls-1" x1="264.81" y1="305" x2="351.41" y2="355"/><line class="cls-1" x1="351.41" y1="255" x2="351.41" y2="355"/><line class="cls-1" x1="264.81" y1="405" x2="351.41" y2="355"/><line class="cls-1" x1="264.81" y1="205" x2="351.41" y2="255"/><line class="cls-1" x1="264.81" y1="305" x2="264.81" y2="205"/><line class="cls-1" x1="178.21" y1="255" x2="264.81" y2="205"/><line class="cls-1" x1="438.02" y1="305" x2="438.02" y2="405"/><line class="cls-1" x1="438.02" y1="305" x2="524.62" y2="355"/><line class="cls-1" x1="438.02" y1="405" x2="524.62" y2="355"/><line class="cls-1" x1="438.02" y1="305" x2="524.62" y2="255"/><line class="cls-1" x1="438.02" y1="305" x2="438.02" y2="205"/><line class="cls-1" x1="351.41" y1="255" x2="438.02" y2="205"/><line class="cls-1" x1="5" y1="255" x2="5" y2="355"/><line class="cls-1" x1="91.6" y1="305" x2="178.21" y2="355"/><line class="cls-1" x1="178.21" y1="455" x2="264.81" y2="505"/><line class="cls-1" x1="264.81" y1="405" x2="264.81" y2="505"/><line class="cls-1" x1="351.41" y1="355" x2="351.41" y2="455"/><line class="cls-1" x1="264.81" y1="505" x2="351.41" y2="455"/><line class="cls-1" x1="524.62" y1="355" x2="524.62" y2="455"/><line class="cls-1" x1="438.02" y1="505" x2="524.62" y2="455"/><line class="cls-1" x1="5" y1="355" x2="5" y2="455"/><line class="cls-1" x1="5" y1="455" x2="91.6" y2="505"/><line class="cls-1" x1="91.6" y1="405" x2="91.6" y2="505"/><line class="cls-1" x1="91.6" y1="405" x2="178.21" y2="455"/><line class="cls-1" x1="91.6" y1="505" x2="178.21" y2="455"/><line class="cls-1" x1="178.21" y1="455" x2="178.21" y2="555"/><line class="cls-1" x1="351.41" y1="555" x2="438.02" y2="505"/><line class="cls-1" x1="178.21" y1="555" x2="264.81" y2="605"/><line class="cls-1" x1="264.81" y1="505" x2="264.81" y2="605"/><line class="cls-1" x1="264.81" y1="605" x2="351.41" y2="555"/><line class="cls-1" x1="91.6" y1="205" x2="178.21" y2="255"/><line class="cls-1" x1="91.6" y1="305" x2="91.6" y2="205"/><line class="cls-1" x1="264.81" y1="205" x2="351.41" y2="155"/><line class="cls-1" x1="178.21" y1="155" x2="264.81" y2="105"/><line class="cls-1" x1="351.41" y1="155" x2="438.02" y2="205"/><line class="cls-1" x1="524.62" y1="155" x2="524.62" y2="255"/><line class="cls-1" x1="438.02" y1="205" x2="524.62" y2="155"/><line class="cls-1" x1="438.02" y1="105" x2="524.62" y2="155"/><line class="cls-1" x1="5" y1="155" x2="5" y2="255"/><line class="cls-1" x1="5" y1="155" x2="91.6" y2="205"/><line class="cls-1" x1="91.6" y1="205" x2="178.21" y2="155"/><line class="cls-1" x1="91.6" y1="105" x2="178.21" y2="155"/><line class="cls-1" x1="5" y1="155" x2="91.6" y2="105"/><line class="cls-1" x1="178.21" y1="55" x2="264.81" y2="105"/><line class="cls-1" x1="178.21" y1="155" x2="178.21" y2="55"/><line class="cls-1" x1="351.41" y1="55" x2="438.02" y2="105"/><line class="cls-1" x1="264.81" y1="5" x2="351.41" y2="55"/><line class="cls-1" x1="178.21" y1="55" x2="264.81" y2="5"/></svg>